<?xml version="1.0" standalone="no"?>
<!DOCTYPE svg PUBLIC "-//W3C//DTD SVG 20010904//EN"
 "http://www.w3.org/TR/2001/REC-SVG-20010904/DTD/svg10.dtd">
<svg version="1.0" xmlns="http://www.w3.org/2000/svg"
 width="446.000000pt" height="446.000000pt" viewBox="0 0 446.000000 446.000000"
 preserveAspectRatio="xMidYMid meet">
<metadata>
Created by potrace 1.14, written by Peter Selinger 2001-2017
</metadata>
<g transform="translate(0.000000,446.000000) scale(0.100000,-0.100000)"
fill="#000000" stroke="none">
<path d="M957 4269 c-49 -4 -119 -17 -157 -28 -101 -31 -260 -109 -268 -132
-2 -5 -9 -9 -16 -9 -21 0 -154 -129 -213 -208 -168 -223 -247 -487 -247 -822
1 -245 31 -430 115 -688 53 -161 177 -450 228 -532 6 -8 29 -49 52 -90 23 -41
45 -77 49 -80 4 -3 10 -15 14 -27 4 -13 12 -23 17 -23 5 0 9 -4 9 -10 0 -14
73 -120 82 -120 4 0 8 -5 8 -10 0 -10 69 -110 94 -136 6 -6 24 -29 41 -50 16
-21 44 -54 62 -73 18 -18 33 -36 33 -39 0 -6 67 -77 181 -191 66 -67 181 -173
289 -265 32 -28 127 -103 180 -142 149 -110 170 -124 170 -117 0 4 5 0 11 -10
5 -9 15 -17 20 -17 6 0 25 -11 43 -25 18 -14 36 -25 40 -25 4 0 15 -8 26 -17
10 -10 36 -27 57 -38 21 -11 52 -29 68 -40 17 -11 87 -48 156 -83 l126 -63
104 52 c57 29 106 55 109 58 3 3 21 14 40 24 19 9 49 26 65 37 17 11 37 23 45
27 26 12 95 58 98 66 2 4 9 7 16 7 7 0 24 10 38 23 14 12 36 28 49 36 56 32
279 202 279 212 0 5 5 9 11 9 34 0 414 364 538 515 37 45 77 93 121 145 16 19
30 41 30 48 0 6 4 12 9 12 8 0 184 257 205 300 4 8 23 42 42 75 61 109 154
306 149 316 -4 5 -2 9 3 9 22 0 166 437 176 532 2 18 6 40 9 48 35 97 42 487
13 640 -23 120 -74 273 -122 370 -122 247 -345 444 -585 516 -118 36 -309 47
-414 24 -27 -6 -59 -12 -70 -14 -30 -4 -123 -36 -154 -52 -14 -8 -31 -14 -37
-14 -11 0 -176 -97 -184 -109 -3 -4 -23 -20 -45 -36 -57 -40 -245 -233 -245
-251 0 -7 -5 -14 -10 -14 -27 0 -280 -442 -280 -490 0 -6 -5 -8 -10 -5 -6 4
-8 10 -5 14 2 5 -28 73 -68 152 -287 569 -716 868 -1190 828z"/>
</g>
</svg>
